<?xml version="1.0" standalone="no"?>
<!DOCTYPE svg PUBLIC "-//W3C//DTD SVG 20010904//EN"
 "http://www.w3.org/TR/2001/REC-SVG-20010904/DTD/svg10.dtd">
<svg version="1.0" xmlns="http://www.w3.org/2000/svg"
 width="256.000000pt" height="256.000000pt" viewBox="0 0 256.000000 256.000000"
 preserveAspectRatio="xMidYMid meet">
<metadata>
Created by potrace 1.11, written by Peter Selinger 2001-2013
</metadata>
<g transform="translate(0.000000,256.000000) scale(0.100000,-0.100000)"
fill="#000000" stroke="none">
<path d="M0 1280 l0 -1280 1280 0 1280 0 0 1280 0 1280 -1280 0 -1280 0 0
-1280z m911 460 c10 -25 98 -247 195 -495 96 -247 178 -456 181 -462 4 -10
-20 -13 -100 -13 l-104 0 -35 93 -35 92 -235 3 -235 2 -35 -92 -35 -93 -102
-3 -103 -3 7 23 c4 13 93 243 198 511 l191 488 115 -3 115 -3 17 -45z m1155
18 c94 -49 134 -121 134 -234 -1 -94 -55 -183 -131 -214 l-28 -12 48 -25 c84
-41 131 -125 131 -232 0 -120 -60 -211 -166 -251 -51 -18 -77 -20 -349 -20
l-295 0 0 511 0 510 303 -3 302 -3 51 -27z"/>
<path d="M686 1362 c-47 -126 -86 -232 -86 -235 0 -8 344 -9 352 -2 6 7 -164
465 -173 465 -3 0 -45 -103 -93 -228z"/>
<path d="M1590 1499 l0 -131 173 4 c161 3 174 5 204 26 69 49 66 161 -6 209
-32 22 -44 23 -202 23 l-169 0 0 -131z"/>
<path d="M1590 1070 l0 -140 173 0 c205 0 230 8 261 82 25 61 16 112 -29 154
-43 40 -65 44 -251 44 l-154 0 0 -140z"/>
</g>
</svg>
